<?xml version="1.0" encoding="UTF-8"?>
<svg id="Calque_1" xmlns="http://www.w3.org/2000/svg" xmlns:xlink="http://www.w3.org/1999/xlink" version="1.1" viewBox="0 0 157.21 180.04">
  <!-- Generator: Adobe Illustrator 30.1.0, SVG Export Plug-In . SVG Version: 2.1.1 Build 136)  -->
  <defs>
    <style>
      .st0 {
        stroke-width: 1.23px;
      }

      .st0, .st1 {
        stroke: #f59e0b;
        stroke-linecap: round;
      }

      .st0, .st1, .st2, .st3 {
        fill: none;
        stroke-miterlimit: 2.47;
      }

      .st1 {
        stroke-width: 1.54px;
      }

      .st4 {
        fill: #94a3b8;
      }

      .st5 {
        opacity: .4;
      }

      .st5, .st6, .st7, .st3, .st8, .st9 {
        isolation: isolate;
      }

      .st5, .st10, .st9 {
        fill: #10b981;
      }

      .st2 {
        stroke: url(#Dégradé_sans_nom_2);
        stroke-width: .93px;
      }

      .st11 {
        fill: #3b82f6;
      }

      .st6 {
        fill: #f0f7ff;
        opacity: .08;
      }

      .st7 {
        fill: #0f172a;
      }

      .st7, .st9 {
        font-family: Helvetica-Bold, Helvetica;
        font-size: 25.91px;
        font-weight: 700;
      }

      .st3 {
        opacity: .6;
        stroke: #eff6ff;
        stroke-width: .31px;
      }

      .st12 {
        fill: #f59e0b;
      }

      .st8 {
        font-family: MyriadPro-Regular, 'Myriad Pro';
        font-size: 7.4px;
        letter-spacing: .29em;
      }

      .st8, .st13 {
        fill: #64748b;
      }
    </style>
    <linearGradient id="Dégradé_sans_nom_2" data-name="Dégradé sans nom 2" x1="-199.69" y1="406.6" x2="-198.31" y2="405.22" gradientTransform="translate(16530.49 39156.35) scale(82.67 -96.24)" gradientUnits="userSpaceOnUse">
      <stop offset="0" stop-color="#10b981"/>
      <stop offset="1" stop-color="#3b82f6"/>
    </linearGradient>
  </defs>
  <polygon class="st2" points="78.61 5.45 151.25 47.73 151.25 132.3 78.61 174.59 5.96 132.3 5.96 47.73 78.61 5.45"/>
  <g>
    <path class="st13" d="M122.45,65.76h0c.8,0,1.46.87,1.46,1.94v42.76c0,1.07-.65,1.94-1.46,1.94h0c-.8,0-1.46-.87-1.46-1.94v-42.76c0-1.07.65-1.94,1.46-1.94Z"/>
    <circle class="st4" cx="122.45" cy="65.76" r="2.91"/>
    <g>
      <path class="st10" d="M121,63.57c-.73-5.1,0-18.2,1.46-25.48,1.46,7.28,2.18,20.38,1.46,25.48h-2.91Z"/>
      <path class="st10" d="M125.07,65.59c4.78,1.92,15.76,9.1,21.33,14-7.03-2.38-18.74-8.3-22.79-11.48l1.46-2.52Z"/>
      <path class="st10" d="M121.29,68.11c-4.05,3.18-15.76,9.1-22.79,11.48,5.58-4.9,16.56-12.08,21.33-14l1.46,2.52Z"/>
    </g>
  </g>
  <g>
    <g>
      <text class="st7" transform="translate(16.91 81.66)"><tspan x="0" y="0">Smart</tspan></text>
      <text class="st9" transform="translate(16.91 108.19)"><tspan x="0" y="0">Renew</tspan></text>
      <path class="st5" d="M17.53,116.21h122.16c.34,0,.62.21.62.46h0c0,.26-.28.46-.62.46H17.53c-.34,0-.62-.21-.62-.46h0c0-.26.28-.46.62-.46Z"/>
    </g>
    <text class="st8" transform="translate(52.76 130.3)"><tspan x="0" y="0">ANALYTICS</tspan></text>
  </g>
  <g>
    <g>
      <g>
        <path class="st11" d="M65.69,136.51h7.78c.51,0,.85.41.76.93l-.86,4.82c-.09.51-.58.93-1.09.93h-7.78c-.51,0-.85-.41-.76-.93l.86-4.82c.09-.51.58-.93,1.09-.93Z"/>
        <line class="st3" x1="64.13" y1="139.84" x2="73.97" y2="139.84"/>
        <line class="st3" x1="64.34" y1="138.18" x2="74.19" y2="138.18"/>
        <line class="st3" x1="63.77" y1="141.49" x2="73.61" y2="141.49"/>
        <line class="st3" x1="65.98" y1="143.3" x2="67.26" y2="136.37"/>
        <line class="st3" x1="68.33" y1="143.31" x2="69.59" y2="136.41"/>
        <line class="st3" x1="70.74" y1="143.3" x2="71.97" y2="136.33"/>
      </g>
      <g>
        <path class="st11" d="M76.85,136.51h7.78c.51,0,.85.41.76.93l-.86,4.82c-.09.51-.58.93-1.09.93h-7.78c-.51,0-.85-.41-.76-.93l.86-4.82c.09-.51.58-.93,1.09-.93Z"/>
        <line class="st3" x1="75.28" y1="139.84" x2="85.12" y2="139.84"/>
        <line class="st3" x1="75.5" y1="138.18" x2="85.34" y2="138.18"/>
        <line class="st3" x1="74.92" y1="141.49" x2="84.77" y2="141.49"/>
        <line class="st3" x1="77.14" y1="143.3" x2="78.41" y2="136.37"/>
        <line class="st3" x1="79.49" y1="143.31" x2="80.75" y2="136.41"/>
        <line class="st3" x1="81.89" y1="143.3" x2="83.12" y2="136.33"/>
      </g>
      <g>
        <path class="st11" d="M88,136.51h7.78c.51,0,.85.41.76.93l-.86,4.82c-.09.51-.58.93-1.09.93h-7.78c-.51,0-.85-.41-.76-.93l.86-4.82c.09-.51.58-.93,1.09-.93Z"/>
        <line class="st3" x1="86.44" y1="139.84" x2="96.28" y2="139.84"/>
        <line class="st3" x1="86.65" y1="138.18" x2="96.49" y2="138.18"/>
        <line class="st3" x1="86.08" y1="141.49" x2="95.92" y2="141.49"/>
        <line class="st3" x1="88.29" y1="143.3" x2="89.57" y2="136.37"/>
        <line class="st3" x1="90.64" y1="143.31" x2="91.9" y2="136.41"/>
        <line class="st3" x1="93.05" y1="143.3" x2="94.27" y2="136.33"/>
      </g>
    </g>
    <g>
      <g>
        <path class="st11" d="M65.07,152.82h7.78c.51,0,.85.41.76.93l-.86,4.82c-.09.51-.58.93-1.09.93h-7.78c-.51,0-.85-.41-.76-.93l.86-4.82c.09-.51.58-.93,1.09-.93Z"/>
        <line class="st3" x1="63.51" y1="156.16" x2="73.35" y2="156.16"/>
        <line class="st3" x1="63.72" y1="154.49" x2="73.57" y2="154.49"/>
        <line class="st3" x1="63.15" y1="157.81" x2="72.99" y2="157.81"/>
        <line class="st3" x1="65.36" y1="159.61" x2="66.64" y2="152.68"/>
        <line class="st3" x1="67.71" y1="159.62" x2="68.97" y2="152.72"/>
        <line class="st3" x1="70.12" y1="159.61" x2="71.34" y2="152.64"/>
      </g>
      <g>
        <path class="st11" d="M76.21,152.82h7.78c.51,0,.85.41.76.93l-.86,4.82c-.09.51-.58.93-1.09.93h-7.78c-.51,0-.85-.41-.76-.93l.86-4.82c.09-.51.58-.93,1.09-.93Z"/>
        <line class="st3" x1="74.64" y1="156.16" x2="84.48" y2="156.16"/>
        <line class="st3" x1="74.86" y1="154.49" x2="84.7" y2="154.49"/>
        <line class="st3" x1="74.28" y1="157.81" x2="84.13" y2="157.81"/>
        <line class="st3" x1="76.5" y1="159.61" x2="77.77" y2="152.68"/>
        <line class="st3" x1="78.85" y1="159.62" x2="80.11" y2="152.72"/>
        <line class="st3" x1="81.25" y1="159.61" x2="82.48" y2="152.64"/>
      </g>
      <g>
        <path class="st11" d="M87.34,152.82h7.78c.51,0,.85.41.76.93l-.86,4.82c-.09.51-.58.93-1.09.93h-7.78c-.51,0-.85-.41-.76-.93l.86-4.82c.09-.51.58-.93,1.09-.93Z"/>
        <line class="st3" x1="85.78" y1="156.16" x2="95.62" y2="156.16"/>
        <line class="st3" x1="85.99" y1="154.49" x2="95.83" y2="154.49"/>
        <line class="st3" x1="85.42" y1="157.81" x2="95.26" y2="157.81"/>
        <line class="st3" x1="87.63" y1="159.61" x2="88.91" y2="152.68"/>
        <line class="st3" x1="89.98" y1="159.62" x2="91.24" y2="152.72"/>
        <line class="st3" x1="92.39" y1="159.61" x2="93.61" y2="152.64"/>
      </g>
    </g>
    <g>
      <g>
        <path class="st11" d="M59.27,144.67h7.78c.51,0,.85.41.76.93l-.86,4.82c-.09.51-.58.93-1.09.93h-7.78c-.51,0-.85-.41-.76-.93l.86-4.82c.09-.51.58-.93,1.09-.93Z"/>
        <line class="st3" x1="57.7" y1="148" x2="67.55" y2="148"/>
        <line class="st3" x1="57.92" y1="146.34" x2="67.76" y2="146.34"/>
        <line class="st3" x1="57.35" y1="149.65" x2="67.19" y2="149.65"/>
        <line class="st3" x1="59.56" y1="151.46" x2="60.83" y2="144.52"/>
        <line class="st3" x1="61.91" y1="151.47" x2="63.17" y2="144.57"/>
        <line class="st3" x1="64.31" y1="151.46" x2="65.54" y2="144.49"/>
      </g>
      <g>
        <path class="st11" d="M70.41,144.67h7.78c.51,0,.85.41.76.93l-.86,4.82c-.09.51-.58.93-1.09.93h-7.78c-.51,0-.85-.41-.76-.93l.86-4.82c.09-.51.58-.93,1.09-.93Z"/>
        <line class="st3" x1="68.85" y1="148" x2="78.69" y2="148"/>
        <line class="st3" x1="69.06" y1="146.34" x2="78.9" y2="146.34"/>
        <line class="st3" x1="68.49" y1="149.65" x2="78.33" y2="149.65"/>
        <line class="st3" x1="70.7" y1="151.46" x2="71.98" y2="144.52"/>
        <line class="st3" x1="73.05" y1="151.47" x2="74.31" y2="144.57"/>
        <line class="st3" x1="75.46" y1="151.46" x2="76.68" y2="144.49"/>
      </g>
      <g>
        <path class="st11" d="M81.56,144.67h7.78c.51,0,.85.41.76.93l-.86,4.82c-.09.51-.58.93-1.09.93h-7.78c-.51,0-.85-.41-.76-.93l.86-4.82c.09-.51.58-.93,1.09-.93Z"/>
        <line class="st3" x1="79.99" y1="148" x2="89.83" y2="148"/>
        <line class="st3" x1="80.21" y1="146.34" x2="90.05" y2="146.34"/>
        <line class="st3" x1="79.63" y1="149.65" x2="89.47" y2="149.65"/>
        <line class="st3" x1="81.84" y1="151.46" x2="83.12" y2="144.52"/>
        <line class="st3" x1="84.2" y1="151.47" x2="85.46" y2="144.57"/>
        <line class="st3" x1="86.6" y1="151.46" x2="87.83" y2="144.49"/>
      </g>
      <g>
        <path class="st11" d="M92.7,144.67h7.78c.51,0,.85.41.76.93l-.86,4.82c-.09.51-.58.93-1.09.93h-7.78c-.51,0-.85-.41-.76-.93l.86-4.82c.09-.51.58-.93,1.09-.93Z"/>
        <line class="st3" x1="91.14" y1="148" x2="100.98" y2="148"/>
        <line class="st3" x1="91.35" y1="146.34" x2="101.19" y2="146.34"/>
        <line class="st3" x1="90.78" y1="149.65" x2="100.62" y2="149.65"/>
        <line class="st3" x1="92.99" y1="151.46" x2="94.26" y2="144.52"/>
        <line class="st3" x1="95.34" y1="151.47" x2="96.6" y2="144.57"/>
        <line class="st3" x1="97.75" y1="151.46" x2="98.97" y2="144.49"/>
      </g>
    </g>
  </g>
  <polygon class="st6" points="78.61 5.45 151.22 47.73 151.22 132.3 78.61 174.59 5.99 132.3 5.99 47.73 78.61 5.45"/>
  <g>
    <circle class="st12" cx="43.94" cy="26.04" r="13.79"/>
    <line class="st1" x1="56.09" y1="9.31" x2="54.07" y2="12.1"/>
    <line class="st1" x1="33.81" y1="39.98" x2="31.78" y2="42.77"/>
    <line class="st1" x1="27.21" y1="13.89" x2="29.99" y2="15.91"/>
    <line class="st1" x1="57.88" y1="36.17" x2="60.67" y2="38.2"/>
    <line class="st0" x1="40.63" y1="5.18" x2="41.14" y2="8.39"/>
    <line class="st0" x1="46.73" y1="43.69" x2="47.24" y2="46.9"/>
    <line class="st0" x1="64.8" y1="22.74" x2="61.59" y2="23.24"/>
    <line class="st0" x1="26.28" y1="28.84" x2="23.07" y2="29.35"/>
  </g>
</svg>